<?xml version="1.0" standalone="no"?>
<!DOCTYPE svg PUBLIC "-//W3C//DTD SVG 20010904//EN"
 "http://www.w3.org/TR/2001/REC-SVG-20010904/DTD/svg10.dtd">
<svg version="1.0" xmlns="http://www.w3.org/2000/svg"
 width="90.000000pt" height="90.000000pt" viewBox="0 0 90.000000 90.000000"
 preserveAspectRatio="xMidYMid meet">

<g transform="translate(0.000000,90.000000) scale(0.100000,-0.100000)"
fill="#000000" stroke="none">
<path d="M292 891 c-13 -8 -31 -191 -19 -191 21 0 57 22 57 35 0 17 16 20 25
5 7 -11 48 -14 58 -4 3 4 -12 42 -34 85 -39 78 -55 91 -87 70z"/>
<path d="M546 884 c-11 -28 -7 -44 12 -44 12 0 8 -8 -18 -29 -19 -16 -37 -28
-41 -25 -3 2 -4 -8 -1 -22 5 -27 21 -38 71 -49 36 -8 51 3 51 38 0 11 -8 17
-21 17 -12 0 -17 4 -14 11 4 6 14 8 22 5 8 -3 12 -2 9 3 -3 4 6 18 19 29 44
38 29 62 -46 76 -29 5 -38 3 -43 -10z"/>
<path d="M397 831 c-7 -28 -1 -31 65 -31 55 0 58 1 58 25 0 24 -3 25 -59 25
-50 0 -59 -3 -64 -19z"/>
<path d="M185 769 c-22 -17 -39 -37 -38 -46 1 -9 -12 -2 -33 18 -32 31 -35 32
-51 17 -14 -15 -14 -19 -2 -34 12 -15 12 -16 -7 -10 -14 4 -26 0 -39 -14 -18
-20 -18 -22 40 -80 33 -33 64 -60 70 -60 5 0 18 12 28 26 10 13 15 23 10 22
-4 -2 -19 6 -33 16 -19 14 -20 17 -5 11 44 -17 60 -16 72 4 11 17 9 23 -11 39
l-24 19 26 16 c51 31 72 55 66 71 -9 23 -24 20 -69 -15z"/>
<path d="M642 788 c-21 -21 -13 -34 38 -58 45 -21 49 -25 35 -40 -21 -24 -19
-56 7 -80 25 -23 37 -25 73 -8 23 10 29 20 26 40 0 4 5 5 12 2 7 -2 22 4 32
16 39 43 -23 96 -86 73 -18 -7 -28 -7 -26 -1 1 5 -21 23 -49 39 -39 22 -53 26
-62 17z m173 -109 c-4 -6 -10 -8 -13 -5 -3 4 -17 -1 -31 -10 l-26 -15 24 20
c24 22 57 29 46 10z"/>
<path d="M426 618 c-28 -16 -20 -98 19 -190 6 -14 2 -18 -18 -18 -41 0 -84
-48 -108 -120 -16 -48 -22 -91 -23 -168 -1 -80 -4 -105 -16 -112 -12 -8 -10
-10 10 -10 l25 0 -3 107 c-2 92 1 118 21 177 13 39 28 71 33 73 12 3 44 -62
44 -90 0 -32 43 -118 74 -146 21 -20 26 -34 27 -75 1 -38 3 -45 8 -26 l7 25
12 -22 c12 -23 17 -23 187 -23 l175 0 0 61 0 60 -39 17 c-46 20 -56 44 -34 79
14 21 14 26 1 41 -8 9 -18 25 -21 35 -4 9 -15 20 -24 23 -10 3 -25 10 -33 15
-8 5 -20 12 -27 15 -6 3 -30 23 -54 45 -23 21 -46 39 -50 39 -4 0 -11 27 -15
61 -4 37 -12 63 -20 66 -8 3 -14 14 -14 25 0 17 -5 19 -26 14 -15 -4 -23 -3
-20 2 3 6 -2 9 -12 8 -9 0 -16 4 -15 9 2 13 -50 15 -71 3z m264 -288 c5 -19
10 -41 10 -49 0 -8 6 -11 15 -7 12 4 15 -3 15 -34 l0 -38 -31 15 c-38 19 -102
12 -138 -15 -14 -10 -31 -36 -37 -57 l-10 -38 -23 24 c-38 41 -58 81 -71 147
-7 34 -17 62 -21 62 -16 0 -9 39 9 49 19 10 72 -8 98 -34 16 -15 60 -20 88 -9
10 4 16 18 16 40 l0 35 35 -28 c21 -16 39 -43 45 -63z m31 -32 c-6 -13 -9 -15
-7 -6 3 10 1 20 -5 23 -5 4 -6 11 -3 17 4 6 10 6 17 -1 7 -7 7 -17 -2 -33z
m76 -15 c4 -11 -44 -50 -51 -42 -2 2 -6 17 -10 32 -6 27 -5 28 25 25 18 -2 34
-8 36 -15z m17 -57 c-3 -9 -19 -23 -34 -31 -26 -13 -28 -13 -33 5 -4 14 4 25
27 38 33 21 51 16 40 -12z m-14 -56 c0 -5 -7 -7 -15 -4 -8 4 -15 8 -15 10 0 2
7 4 15 4 8 0 15 -4 15 -10z"/>
<path d="M391 594 c0 -11 3 -14 6 -6 3 7 2 16 -1 19 -3 4 -6 -2 -5 -13z"/>
</g>
</svg>
